Coordinates
version=1
nRows=13
nColumns=40
inDegrees=yes

Units are S.I. units (second, meters, Newtons, ...)
Angles are in degrees.

endheader
time	pelvis_tilt	pelvis_list	pelvis_rotation	pelvis_tx	pelvis_ty	pelvis_tz	hip_flexion_r	hip_adduction_r	hip_rotation_r	knee_angle_r	knee_angle_r_beta	ankle_angle_r	subtalar_angle_r	mtp_angle_r	hip_flexion_l	hip_adduction_l	hip_rotation_l	knee_angle_l	knee_angle_l_beta	ankle_angle_l	subtalar_angle_l	mtp_angle_l	lumbar_extension	lumbar_bending	lumbar_rotation	arm_flex_r	arm_add_r	arm_rot_r	elbow_flex_r	pro_sup_r	wrist_flex_r	wrist_dev_r	arm_flex_l	arm_add_l	arm_rot_l	elbow_flex_l	pro_sup_l	wrist_flex_l	wrist_dev_l
     36.57428571	     -1.38357007	     -4.27807814	     -4.05747646	      0.94415322	      0.91745664	      0.44568776	     25.21660870	     -6.32009278	     -5.52548011	     63.42396553	     63.42396553	     10.03548196	    -18.55764854	      9.76814814	     14.09908123	     -1.96851286	     -4.56389426	     31.87300313	     31.87300313	     21.29889049	    -17.40872917	      6.51444941	    -11.87206518	      6.57924561	      0.23063831	     12.07983140	    -12.61129989	    -12.32153184	     27.68224019	     46.46358262	      0.00000000	      0.00000000	     20.21992062	    -16.24857276	      6.64177174	     43.53860668	     45.97767525	      0.00000000	      0.00000000
     36.59357143	     -1.41664876	     -4.36342153	     -4.57775116	      0.94327832	      0.91720072	      0.44552740	     26.32401059	     -5.82150273	     -5.20669787	     62.13690655	     62.13690655	     10.20071620	    -18.47702072	      9.62044955	     13.68428769	     -2.03861337	     -4.86857239	     31.83936310	     31.83936310	     21.74388689	    -17.52796560	      6.83148205	    -12.00189989	      6.89842360	      0.86750489	      8.85042019	    -12.65181394	    -12.30526476	     25.83546673	     46.51663293	      0.00000000	      0.00000000	     21.90289571	    -15.82652640	      6.23949587	     44.32049149	     46.05401054	      0.00000000	      0.00000000
     36.61285714	     -1.48944367	     -4.44070473	     -5.07389879	      0.94237326	      0.91740296	      0.44574755	     27.22110009	     -5.31480647	     -5.04258175	     60.19608068	     60.19608068	     10.28917033	    -18.29756611	      9.25936258	     13.16382165	     -2.11546837	     -5.19523102	     31.50986333	     31.50986333	     22.06653036	    -17.57372613	      7.11870526	    -12.09480760	      7.23526002	      0.88500863	      6.00011343	    -12.37696972	    -12.36083626	     24.52961194	     46.55529607	      0.00000000	      0.00000000	     23.20103579	    -15.92419300	      5.73317427	     44.94664956	     46.13168905	      0.00000000	      0.00000000
     36.63214286	     -1.73945969	     -4.49792614	     -5.55893237	      0.94134612	      0.91782191	      0.44639328	     28.10736562	     -4.79646488	     -5.01410857	     57.73260892	     57.73260892	     10.42519591	    -17.95441434	      9.13409869	     12.72563661	     -2.22210663	     -5.56678402	     30.94713757	     30.94713757	     22.22787050	    -17.51169826	      7.24339435	    -11.99249596	      7.50006173	      0.41262127	      3.48386902	    -11.98275486	    -12.40318120	     23.57238939	     46.57791488	      0.00000000	      0.00000000	     24.16362815	    -16.45924436	      5.34112250	     45.54196521	     46.18725012	      0.00000000	      0.00000000
     36.65142857	     -1.88326553	     -4.51488584	     -6.14942329	      0.94045129	      0.91883573	      0.44731422	     28.46602799	     -4.32957379	     -5.08500154	     54.36633573	     54.36633573	      9.06181311	    -17.89039748	      4.71336400	     12.01671084	     -2.28587813	     -6.08702003	     30.12477447	     30.12477447	     22.23533959	    -17.43721864	      7.33495074	    -12.09329290	      7.75204800	      0.73761364	      0.57498590	    -11.77429476	    -13.19929220	     23.24601844	     46.66601517	      0.00000000	      0.00000000	     24.99259167	    -16.25504490	      3.13718808	     47.91821079	     46.46364244	      0.00000000	      0.00000000
     36.67071429	     -2.12916528	     -4.56486340	     -6.72508477	      0.93950078	      0.92006079	      0.44874002	     28.83189341	     -3.69172121	     -5.12460437	     50.85820405	     50.85820405	      9.02426718	    -17.22283305	      4.53531306	     11.30439129	     -2.42280946	     -6.63127075	     29.08532699	     29.08532699	     22.16021034	    -17.25112857	      7.42272496	    -12.05315206	      7.98154057	      0.79182899	     -1.77066302	    -11.56289767	    -13.27910455	     22.34167355	     46.69554092	      0.00000000	      0.00000000	     26.04118173	    -16.61965485	      2.68951188	     49.15960560	     46.53127712	      0.00000000	      0.00000000
     36.69000000	     -2.65225818	     -4.52645035	     -7.29317222	      0.93843286	      0.92095827	      0.45050219	     29.36152188	     -3.13135638	     -5.27606252	     47.14672267	     47.14672267	      9.00128458	    -16.07002975	      4.58543208	     10.91059011	     -2.53014565	     -7.21657489	     28.05204565	     28.05204565	     22.08218803	    -16.93699148	      7.50368263	    -11.61611087	      8.10014535	      0.48224552	     -3.82697023	    -11.29708878	    -13.34933292	     21.71484373	     46.71069121	      0.00000000	      0.00000000	     26.94011112	    -17.30135270	      2.29662652	     50.04807504	     46.58488806	      0.00000000	      0.00000000
     36.70928571	     -2.76283851	     -4.51838736	     -7.90268084	      0.93785008	      0.92259776	      0.45253413	     28.92673613	     -2.60790327	     -5.61212864	     42.64972900	     42.64972900	      7.61460526	    -14.91592176	      0.54135419	      9.76180565	     -2.61213841	     -8.00948224	     26.48606567	     26.48606567	     21.33073741	    -16.70041155	      6.18757261	    -11.87420049	      8.19496334	      0.63910090	     -6.31882474	    -11.17095529	    -14.12094819	     22.67984850	     46.73356794	      0.00000000	      0.00000000	     26.72940811	    -17.57927321	      0.34970793	     54.89778189	     46.82397221	      0.00000000	      0.00000000
     36.72857143	     -3.05244935	     -4.44419235	     -8.48680392	      0.93723765	      0.92385177	      0.45487493	     28.67733293	     -2.09757483	     -5.93667618	     38.40597118	     38.40597118	      7.34030367	    -12.82043900	      0.03269374	      8.85828154	     -2.63234058	     -8.69827549	     25.02468362	     25.02468362	     21.10697461	    -16.23727778	      6.04494786	    -11.74380780	      8.21539195	      0.71738300	     -8.06109736	    -11.03293142	    -14.24680367	     22.31551077	     46.74942924	      0.00000000	      0.00000000	     27.61014291	    -18.02020821	     -0.28112147	     56.40423985	     46.90969932	      0.00000000	      0.00000000
     36.74785714	     -3.33174040	     -4.32449140	     -9.04204116	      0.93685062	      0.92475780	      0.45742291	     28.30151100	     -1.68268240	     -6.40884711	     34.27651708	     34.27651708	      6.98790683	    -10.22548798	     -0.51308629	      7.94342776	     -2.61406117	     -9.46543483	     23.57413862	     23.57413862	     20.78917073	    -15.72752652	      5.51826142	    -11.59884982	      8.15081916	      0.79078602	     -9.76624861	    -10.92898175	    -14.49903827	     22.59139621	     46.74707345	      0.00000000	      0.00000000	     28.19924514	    -18.44559843	     -1.13783506	     58.71134467	     47.02233440	      0.00000000	      0.00000000
     36.76714286	     -3.59811829	     -4.20293848	     -9.54252458	      0.93663549	      0.92526410	      0.46022508	     27.83091615	     -1.25875458	     -6.90301387	     30.38298329	     30.38298329	      6.47216690	     -7.57464375	     -0.98116164	      7.03682487	     -2.58512458	    -10.14744859	     22.16682170	     22.16682170	     20.19438808	    -15.34063568	      4.16441285	    -11.51663959	      8.11510612	      0.56089004	    -11.35131447	    -10.89432286	    -14.88870018	     23.91291149	     46.71121115	      0.00000000	      0.00000000	     28.21418911	    -19.08820901	     -2.54418823	     61.87670250	     47.19172025	      0.00000000	      0.00000000
     36.78642857	     -3.76368150	     -4.09961269	     -9.99453802	      0.93673438	      0.92555216	      0.46324168	     27.22591976	     -0.80626876	     -7.24899626	     26.92599074	     26.92599074	      6.18035755	     -5.08507542	     -0.44779143	      6.06177496	     -2.55845601	    -10.80906201	     20.90868307	     20.90868307	     20.14616004	    -14.79191870	      4.02136707	    -11.40789077	      8.05304632	      0.68860257	    -12.45621074	    -10.89339477	    -14.94740133	     23.87844482	     46.70711779	      0.00000000	      0.00000000	     29.14965128	    -19.40017745	     -2.97177267	     63.19556556	     47.25447422	      0.00000000	      0.00000000
     36.80571429	     -3.95419718	     -3.91123721	    -10.37853368	      0.93710403	      0.92533818	      0.46635310	     26.73740789	     -0.52259956	     -7.65714012	     24.10691563	     24.10691563	      5.88868332	     -2.64173034	      0.10078367	      5.16715905	     -2.44297580	    -11.42920847	     19.74443803	     19.74443803	     20.14259704	    -14.16936130	      3.71139776	    -11.21648390	      7.91699983	      0.84158180	    -13.38848493	    -10.85211129	    -15.05034641	     24.14737875	     46.69358982	      0.00000000	      0.00000000	     29.92135220	    -19.61156955	     -3.43706477	     64.74151345	     47.32156449	      0.00000000	      0.00000000
